<?xml version="1.0" encoding="UTF-8" standalone="no"?>
<svg width="180.975mm" height="25.4mm"
 xmlns="http://www.w3.org/2000/svg" xmlns:xlink="http://www.w3.org/1999/xlink"  version="1.2" baseProfile="tiny">
<title>Qt SVG Document</title>
<desc>Generated with Qt</desc>
<defs>
</defs>
<g fill="none" stroke="black" stroke-width="1" fill-rule="evenodd" stroke-linecap="square" stroke-linejoin="bevel" >

<g fill="none" stroke="#000000" stroke-opacity="1" stroke-width="1" stroke-linecap="square" stroke-linejoin="bevel" transform="matrix(1,0,0,1,0,0)"
font-family="Ubuntu" font-size="11" font-weight="400" font-style="normal" 
>
</g>

<g fill="none" stroke="#000000" stroke-opacity="1" stroke-width="1" stroke-linecap="square" stroke-linejoin="bevel" transform="matrix(1,0,0,1,0,0)"
font-family="Ubuntu" font-size="11" font-weight="400" font-style="normal" 
>
</g>

<g fill="none" stroke="#000000" stroke-opacity="1" stroke-width="1" stroke-linecap="square" stroke-linejoin="bevel" transform="matrix(2,0,0,2,-0.0004,72)"
font-family="Ubuntu" font-size="11" font-weight="400" font-style="normal" 
>
</g>

<g fill="#ffffff" fill-opacity="1" stroke="none" transform="matrix(2,0,0,2,-0.0004,72)"
font-family="Ubuntu" font-size="11" font-weight="400" font-style="normal" 
>
<rect x="0.0002" y="-36" width="256.486" height="36"/>
</g>

<g fill="none" stroke="#000000" stroke-opacity="1" stroke-width="1" stroke-linecap="square" stroke-linejoin="bevel" transform="matrix(2,0,0,2,-0.0004,72)"
font-family="Ubuntu" font-size="11" font-weight="400" font-style="normal" 
>
</g>

<g fill="none" stroke="#000000" stroke-opacity="1" stroke-width="1" stroke-linecap="square" stroke-linejoin="bevel" transform="matrix(2,0,0,2,-0.0004,72)"
font-family="Ubuntu" font-size="11" font-weight="400" font-style="normal" 
>
</g>

<g fill="none" stroke="#000000" stroke-opacity="1" stroke-width="1" stroke-linecap="square" stroke-linejoin="bevel" transform="matrix(2,0,0,2,-0.0004,72)"
font-family="Ubuntu" font-size="11" font-weight="400" font-style="normal" 
>
</g>

<g fill="none" stroke="#000000" stroke-opacity="1" stroke-width="1" stroke-linecap="square" stroke-linejoin="bevel" transform="matrix(2,0,0,2,-0.0004,72)"
font-family="Ubuntu" font-size="11" font-weight="400" font-style="normal" 
>
</g>

<g fill="none" stroke="#000000" stroke-opacity="1" stroke-width="1" stroke-linecap="square" stroke-linejoin="round" transform="matrix(2,0,0,2,-0.0004,72)"
font-family="Ubuntu" font-size="11" font-weight="400" font-style="normal" 
>
<ellipse cx="51.995" cy="-18" rx="51.4948" ry="17.5"/>
</g>

<g fill="none" stroke="#000000" stroke-opacity="1" stroke-width="1" stroke-linecap="square" stroke-linejoin="bevel" transform="matrix(2,0,0,2,-0.0004,72)"
font-family="Ubuntu" font-size="11" font-weight="400" font-style="normal" 
>
</g>

<g fill="none" stroke="#000000" stroke-opacity="1" stroke-width="1" stroke-linecap="square" stroke-linejoin="bevel" transform="matrix(2,0,0,2,40.5833,22)"
font-family="Ubuntu" font-size="11" font-weight="400" font-style="normal" 
>
</g>

<g fill="none" stroke="#000000" stroke-opacity="1" stroke-width="1" stroke-linecap="square" stroke-linejoin="bevel" transform="matrix(2,0,0,2,40.5833,22)"
font-family="sans" font-size="11" font-weight="100" font-style="normal" 
>
</g>

<g fill="#000000" fill-opacity="1" stroke="#000000" stroke-opacity="1" stroke-width="1" stroke-linecap="square" stroke-linejoin="round" transform="matrix(2,0,0,2,40.5833,22)"
font-family="sans" font-size="11" font-weight="100" font-style="normal" 
>
<path vector-effect="none" fill-rule="nonzero" d="M2.79688,2.98438 L3.70313,2.98438 L0.90625,12.0156 L0,12.0156 L2.79688,2.98438 M4.70313,2.64063 L5.70313,2.64063 L5.70313,7.57813 L8.64063,4.98438 L9.90625,4.98438 L6.71875,7.79688 L10.0469,11 L8.75,11 L5.70313,8.0625 L5.70313,11 L4.70313,11 L4.70313,2.64063 M16.25,7.75 L16.25,8.23438 L11.7031,8.23438 C11.7448,8.91146 11.9479,9.42708 12.3125,9.78125 C12.6771,10.1354 13.1875,10.3125 13.8438,10.3125 C14.2292,10.3125 14.599,10.2656 14.9531,10.1719 C15.3073,10.0781 15.6615,9.94271 16.0156,9.76563 L16.0156,10.6875 C15.6615,10.8438 15.2969,10.9609 14.9219,11.0391 C14.5469,11.1172 14.1719,11.1563 13.7969,11.1563 C12.8281,11.1563 12.0651,10.8776 11.5078,10.3203 C10.9505,9.76302 10.6719,9.00521 10.6719,8.04688 C10.6719,7.06771 10.9375,6.28906 11.4688,5.71094 C12,5.13281 12.7188,4.84375 13.625,4.84375 C14.4271,4.84375 15.0651,5.10417 15.5391,5.625 C16.013,6.14583 16.25,6.85417 16.25,7.75 M15.25,7.45313 C15.25,6.91146 15.1016,6.47917 14.8047,6.15625 C14.5078,5.83333 14.1146,5.67188 13.625,5.67188 C13.0729,5.67188 12.6328,5.82813 12.3047,6.14063 C11.9766,6.45313 11.7865,6.89063 11.7344,7.45313 L15.25,7.45313 M20.375,11.5625 C20.0938,12.2813 19.8203,12.7474 19.5547,12.9609 C19.2891,13.1745 18.9323,13.2813 18.4844,13.2813 L17.7031,13.2813 L17.7031,12.4688 L18.2813,12.4688 C18.5521,12.4688 18.763,12.4036 18.9141,12.2734 C19.0651,12.1432 19.2292,11.8385 19.4063,11.3594 L19.5938,10.9063 L17.1563,4.98438 L18.2031,4.98438 L20.0781,9.6875 L21.9688,4.98438 L23.0156,4.98438 L20.375,11.5625 M28.9375,12.8281 L28.9375,13.5938 L23.2188,13.5938 L23.2188,12.8281 L28.9375,12.8281 M30.8438,3.28125 L30.8438,4.98438 L32.875,4.98438 L32.875,5.75 L30.8438,5.75 L30.8438,9.01563 C30.8438,9.50521 30.9115,9.82031 31.0469,9.96094 C31.1823,10.1016 31.4531,10.1719 31.8594,10.1719 L32.875,10.1719 L32.875,11 L31.8594,11 C31.099,11 30.5729,10.8568 30.2813,10.5703 C29.9896,10.2839 29.8438,9.76563 29.8438,9.01563 L29.8438,5.75 L29.125,5.75 L29.125,4.98438 L29.8438,4.98438 L29.8438,3.28125 L30.8438,3.28125 M39.3281,7.75 L39.3281,8.23438 L34.7813,8.23438 C34.8229,8.91146 35.026,9.42708 35.3906,9.78125 C35.7552,10.1354 36.2656,10.3125 36.9219,10.3125 C37.3073,10.3125 37.6771,10.2656 38.0313,10.1719 C38.3854,10.0781 38.7396,9.94271 39.0938,9.76563 L39.0938,10.6875 C38.7396,10.8438 38.375,10.9609 38,11.0391 C37.625,11.1172 37.25,11.1563 36.875,11.1563 C35.9063,11.1563 35.1432,10.8776 34.5859,10.3203 C34.0286,9.76302 33.75,9.00521 33.75,8.04688 C33.75,7.06771 34.0156,6.28906 34.5469,5.71094 C35.0781,5.13281 35.7969,4.84375 36.7031,4.84375 C37.5052,4.84375 38.1432,5.10417 38.6172,5.625 C39.0911,6.14583 39.3281,6.85417 39.3281,7.75 M38.3281,7.45313 C38.3281,6.91146 38.1797,6.47917 37.8828,6.15625 C37.5859,5.83333 37.1927,5.67188 36.7031,5.67188 C36.151,5.67188 35.7109,5.82813 35.3828,6.14063 C35.0547,6.45313 34.8646,6.89063 34.8125,7.45313 L38.3281,7.45313 M40.9375,2.64063 L41.9375,2.64063 L41.9375,11 L40.9375,11 L40.9375,2.64063 M49.1406,7.75 L49.1406,8.23438 L44.5938,8.23438 C44.6354,8.91146 44.8385,9.42708 45.2031,9.78125 C45.5677,10.1354 46.0781,10.3125 46.7344,10.3125 C47.1198,10.3125 47.4896,10.2656 47.8438,10.1719 C48.1979,10.0781 48.5521,9.94271 48.9063,9.76563 L48.9063,10.6875 C48.5521,10.8438 48.1875,10.9609 47.8125,11.0391 C47.4375,11.1172 47.0625,11.1563 46.6875,11.1563 C45.7188,11.1563 44.9557,10.8776 44.3984,10.3203 C43.8411,9.76302 43.5625,9.00521 43.5625,8.04688 C43.5625,7.06771 43.8281,6.28906 44.3594,5.71094 C44.8906,5.13281 45.6094,4.84375 46.5156,4.84375 C47.3177,4.84375 47.9557,5.10417 48.4297,5.625 C48.9036,6.14583 49.1406,6.85417 49.1406,7.75 M48.1406,7.45313 C48.1406,6.91146 47.9922,6.47917 47.6953,6.15625 C47.3984,5.83333 47.0052,5.67188 46.5156,5.67188 C45.9635,5.67188 45.5234,5.82813 45.1953,6.14063 C44.8672,6.45313 44.6771,6.89063 44.625,7.45313 L48.1406,7.45313 M53.0938,5.67188 C52.5625,5.67188 52.1432,5.88021 51.8359,6.29688 C51.5286,6.71354 51.375,7.28125 51.375,8 C51.375,8.71875 51.526,9.28385 51.8281,9.69531 C52.1302,10.1068 52.5521,10.3125 53.0938,10.3125 C53.6146,10.3125 54.0286,10.1068 54.3359,9.69531 C54.6432,9.28385 54.7969,8.71875 54.7969,8 C54.7969,7.28125 54.6432,6.71354 54.3359,6.29688 C54.0286,5.88021 53.6146,5.67188 53.0938,5.67188 M53.0938,4.84375 C53.9479,4.84375 54.6198,5.1224 55.1094,5.67969 C55.599,6.23698 55.8438,7.01042 55.8438,8 C55.8438,8.97917 55.599,9.75 55.1094,10.3125 C54.6198,10.875 53.9479,11.1563 53.0938,11.1563 C52.2292,11.1563 51.5521,10.875 51.0625,10.3125 C50.5729,9.75 50.3281,8.97917 50.3281,8 C50.3281,7.01042 50.5729,6.23698 51.0625,5.67969 C51.5521,5.1224 52.2292,4.84375 53.0938,4.84375 M58.4375,10.0938 L58.4375,13.2813 L57.4375,13.2813 L57.4375,4.98438 L58.4375,4.98438 L58.4375,5.89063 C58.6354,5.53646 58.8932,5.27344 59.2109,5.10156 C59.5286,4.92969 59.9115,4.84375 60.3594,4.84375 C61.0885,4.84375 61.6797,5.13281 62.1328,5.71094 C62.5859,6.28906 62.8125,7.05208 62.8125,8 C62.8125,8.94792 62.5859,9.71094 62.1328,10.2891 C61.6797,10.8672 61.0885,11.1563 60.3594,11.1563 C59.9115,11.1563 59.5286,11.0703 59.2109,10.8984 C58.8932,10.7266 58.6354,10.4583 58.4375,10.0938 M61.7969,8 C61.7969,7.27083 61.6458,6.70052 61.3438,6.28906 C61.0417,5.8776 60.6302,5.67188 60.1094,5.67188 C59.5885,5.67188 59.1797,5.8776 58.8828,6.28906 C58.5859,6.70052 58.4375,7.27083 58.4375,8 C58.4375,8.72917 58.5859,9.29948 58.8828,9.71094 C59.1797,10.1224 59.5885,10.3281 60.1094,10.3281 C60.6302,10.3281 61.0417,10.1224 61.3438,9.71094 C61.6458,9.29948 61.7969,8.72917 61.7969,8 "/>
</g>

<g fill="none" stroke="#000000" stroke-opacity="1" stroke-width="1" stroke-linecap="square" stroke-linejoin="bevel" transform="matrix(2,0,0,2,40.5833,22)"
font-family="sans" font-size="11" font-weight="100" font-style="normal" 
>
</g>

<g fill="none" stroke="#000000" stroke-opacity="1" stroke-width="1" stroke-linecap="square" stroke-linejoin="bevel" transform="matrix(2,0,0,2,40.5833,22)"
font-family="Ubuntu" font-size="11" font-weight="400" font-style="normal" 
>
</g>

<g fill="none" stroke="#000000" stroke-opacity="1" stroke-width="1" stroke-linecap="square" stroke-linejoin="bevel" transform="matrix(2,0,0,2,-0.0004,72)"
font-family="Ubuntu" font-size="11" font-weight="400" font-style="normal" 
>
</g>

<g fill="none" stroke="#000000" stroke-opacity="1" stroke-width="1" stroke-linecap="square" stroke-linejoin="bevel" transform="matrix(2,0,0,2,-0.0004,72)"
font-family="Ubuntu" font-size="11" font-weight="400" font-style="normal" 
>
</g>

<g fill="none" stroke="#000000" stroke-opacity="1" stroke-width="1" stroke-linecap="square" stroke-linejoin="bevel" transform="matrix(2,0,0,2,-0.0004,72)"
font-family="Ubuntu" font-size="11" font-weight="400" font-style="normal" 
>
</g>

<g fill="none" stroke="#000000" stroke-opacity="1" stroke-width="1" stroke-linecap="square" stroke-linejoin="round" transform="matrix(2,0,0,2,-0.0004,72)"
font-family="Ubuntu" font-size="11" font-weight="400" font-style="normal" 
>
<ellipse cx="214.24" cy="-18" rx="41.746" ry="17.5"/>
</g>

<g fill="none" stroke="#000000" stroke-opacity="1" stroke-width="1" stroke-linecap="square" stroke-linejoin="bevel" transform="matrix(2,0,0,2,-0.0004,72)"
font-family="Ubuntu" font-size="11" font-weight="400" font-style="normal" 
>
</g>

<g fill="none" stroke="#000000" stroke-opacity="1" stroke-width="1" stroke-linecap="square" stroke-linejoin="bevel" transform="matrix(2,0,0,2,380.401,22)"
font-family="Ubuntu" font-size="11" font-weight="400" font-style="normal" 
>
</g>

<g fill="none" stroke="#000000" stroke-opacity="1" stroke-width="1" stroke-linecap="square" stroke-linejoin="bevel" transform="matrix(2,0,0,2,380.401,22)"
font-family="sans" font-size="11" font-weight="100" font-style="normal" 
>
</g>

<g fill="#000000" fill-opacity="1" stroke="#000000" stroke-opacity="1" stroke-width="1" stroke-linecap="square" stroke-linejoin="round" transform="matrix(2,0,0,2,380.401,22)"
font-family="sans" font-size="11" font-weight="100" font-style="normal" 
>
<path vector-effect="none" fill-rule="nonzero" d="M2.79688,2.98438 L3.70313,2.98438 L0.90625,12.0156 L0,12.0156 L2.79688,2.98438 M8.70313,7.92188 C8.70313,7.20313 8.55469,6.64844 8.25781,6.25781 C7.96094,5.86719 7.54688,5.67188 7.01563,5.67188 C6.48438,5.67188 6.07031,5.86719 5.77344,6.25781 C5.47656,6.64844 5.32813,7.20313 5.32813,7.92188 C5.32813,8.63021 5.47656,9.18229 5.77344,9.57813 C6.07031,9.97396 6.48438,10.1719 7.01563,10.1719 C7.54688,10.1719 7.96094,9.97396 8.25781,9.57813 C8.55469,9.18229 8.70313,8.63021 8.70313,7.92188 M9.6875,10.25 C9.6875,11.2813 9.46094,12.0443 9.00781,12.5391 C8.55469,13.0339 7.85938,13.2813 6.92188,13.2813 C6.56771,13.2813 6.23698,13.2552 5.92969,13.2031 C5.6224,13.151 5.32292,13.0729 5.03125,12.9688 L5.03125,12.0156 C5.32292,12.1719 5.60938,12.2865 5.89063,12.3594 C6.17188,12.4323 6.46354,12.4688 6.76563,12.4688 C7.41146,12.4688 7.89583,12.2995 8.21875,11.9609 C8.54167,11.6224 8.70313,11.1146 8.70313,10.4375 L8.70313,9.9375 C8.49479,10.2917 8.23177,10.5573 7.91406,10.7344 C7.59635,10.9115 7.21354,11 6.76563,11 C6.02604,11 5.43229,10.7188 4.98438,10.1563 C4.53646,9.59375 4.3125,8.84896 4.3125,7.92188 C4.3125,6.99479 4.53646,6.25 4.98438,5.6875 C5.43229,5.125 6.02604,4.84375 6.76563,4.84375 C7.21354,4.84375 7.59635,4.92969 7.91406,5.10156 C8.23177,5.27344 8.49479,5.53646 8.70313,5.89063 L8.70313,4.98438 L9.6875,4.98438 L9.6875,10.25 M14.0469,5.67188 C13.5156,5.67188 13.0964,5.88021 12.7891,6.29688 C12.4818,6.71354 12.3281,7.28125 12.3281,8 C12.3281,8.71875 12.4792,9.28385 12.7813,9.69531 C13.0833,10.1068 13.5052,10.3125 14.0469,10.3125 C14.5677,10.3125 14.9818,10.1068 15.2891,9.69531 C15.5964,9.28385 15.75,8.71875 15.75,8 C15.75,7.28125 15.5964,6.71354 15.2891,6.29688 C14.9818,5.88021 14.5677,5.67188 14.0469,5.67188 M14.0469,4.84375 C14.901,4.84375 15.5729,5.1224 16.0625,5.67969 C16.5521,6.23698 16.7969,7.01042 16.7969,8 C16.7969,8.97917 16.5521,9.75 16.0625,10.3125 C15.5729,10.875 14.901,11.1563 14.0469,11.1563 C13.1823,11.1563 12.5052,10.875 12.0156,10.3125 C11.526,9.75 11.2813,8.97917 11.2813,8 C11.2813,7.01042 11.526,6.23698 12.0156,5.67969 C12.5052,5.1224 13.1823,4.84375 14.0469,4.84375 M19.3906,10.0938 L19.3906,13.2813 L18.3906,13.2813 L18.3906,4.98438 L19.3906,4.98438 L19.3906,5.89063 C19.5885,5.53646 19.8464,5.27344 20.1641,5.10156 C20.4818,4.92969 20.8646,4.84375 21.3125,4.84375 C22.0417,4.84375 22.6328,5.13281 23.0859,5.71094 C23.5391,6.28906 23.7656,7.05208 23.7656,8 C23.7656,8.94792 23.5391,9.71094 23.0859,10.2891 C22.6328,10.8672 22.0417,11.1563 21.3125,11.1563 C20.8646,11.1563 20.4818,11.0703 20.1641,10.8984 C19.8464,10.7266 19.5885,10.4583 19.3906,10.0938 M22.75,8 C22.75,7.27083 22.599,6.70052 22.2969,6.28906 C21.9948,5.8776 21.5833,5.67188 21.0625,5.67188 C20.5417,5.67188 20.1328,5.8776 19.8359,6.28906 C19.5391,6.70052 19.3906,7.27083 19.3906,8 C19.3906,8.72917 19.5391,9.29948 19.8359,9.71094 C20.1328,10.1224 20.5417,10.3281 21.0625,10.3281 C21.5833,10.3281 21.9948,10.1224 22.2969,9.71094 C22.599,9.29948 22.75,8.72917 22.75,8 M25.3906,4.98438 L26.3906,4.98438 L26.3906,11 L25.3906,11 L25.3906,4.98438 M25.3906,2.64063 L26.3906,2.64063 L26.3906,3.89063 L25.3906,3.89063 L25.3906,2.64063 M32.4063,7.92188 C32.4063,7.20313 32.2578,6.64844 31.9609,6.25781 C31.6641,5.86719 31.25,5.67188 30.7188,5.67188 C30.1875,5.67188 29.7734,5.86719 29.4766,6.25781 C29.1797,6.64844 29.0313,7.20313 29.0313,7.92188 C29.0313,8.63021 29.1797,9.18229 29.4766,9.57813 C29.7734,9.97396 30.1875,10.1719 30.7188,10.1719 C31.25,10.1719 31.6641,9.97396 31.9609,9.57813 C32.2578,9.18229 32.4063,8.63021 32.4063,7.92188 M33.3906,10.25 C33.3906,11.2813 33.1641,12.0443 32.7109,12.5391 C32.2578,13.0339 31.5625,13.2813 30.625,13.2813 C30.2708,13.2813 29.9401,13.2552 29.6328,13.2031 C29.3255,13.151 29.026,13.0729 28.7344,12.9688 L28.7344,12.0156 C29.026,12.1719 29.3125,12.2865 29.5938,12.3594 C29.875,12.4323 30.1667,12.4688 30.4688,12.4688 C31.1146,12.4688 31.599,12.2995 31.9219,11.9609 C32.2448,11.6224 32.4063,11.1146 32.4063,10.4375 L32.4063,9.9375 C32.1979,10.2917 31.9349,10.5573 31.6172,10.7344 C31.2995,10.9115 30.9167,11 30.4688,11 C29.7292,11 29.1354,10.7188 28.6875,10.1563 C28.2396,9.59375 28.0156,8.84896 28.0156,7.92188 C28.0156,6.99479 28.2396,6.25 28.6875,5.6875 C29.1354,5.125 29.7292,4.84375 30.4688,4.84375 C30.9167,4.84375 31.2995,4.92969 31.6172,5.10156 C31.9349,5.27344 32.1979,5.53646 32.4063,5.89063 L32.4063,4.98438 L33.3906,4.98438 L33.3906,10.25 M37.75,5.67188 C37.2188,5.67188 36.7995,5.88021 36.4922,6.29688 C36.1849,6.71354 36.0313,7.28125 36.0313,8 C36.0313,8.71875 36.1823,9.28385 36.4844,9.69531 C36.7865,10.1068 37.2083,10.3125 37.75,10.3125 C38.2708,10.3125 38.6849,10.1068 38.9922,9.69531 C39.2995,9.28385 39.4531,8.71875 39.4531,8 C39.4531,7.28125 39.2995,6.71354 38.9922,6.29688 C38.6849,5.88021 38.2708,5.67188 37.75,5.67188 M37.75,4.84375 C38.6042,4.84375 39.276,5.1224 39.7656,5.67969 C40.2552,6.23698 40.5,7.01042 40.5,8 C40.5,8.97917 40.2552,9.75 39.7656,10.3125 C39.276,10.875 38.6042,11.1563 37.75,11.1563 C36.8854,11.1563 36.2083,10.875 35.7188,10.3125 C35.2292,9.75 34.9844,8.97917 34.9844,8 C34.9844,7.01042 35.2292,6.23698 35.7188,5.67969 C36.2083,5.1224 36.8854,4.84375 37.75,4.84375 M45.5625,6.67188 C46.0833,6.78646 46.4896,7.01823 46.7813,7.36719 C47.0729,7.71615 47.2188,8.15104 47.2188,8.67188 C47.2188,9.46354 46.9453,10.0755 46.3984,10.5078 C45.8516,10.9401 45.0781,11.1563 44.0781,11.1563 C43.7344,11.1563 43.3854,11.1224 43.0313,11.0547 C42.6771,10.987 42.3125,10.8906 41.9375,10.7656 L41.9375,9.70313 C42.2396,9.88021 42.5677,10.0156 42.9219,10.1094 C43.276,10.2031 43.651,10.25 44.0469,10.25 C44.724,10.25 45.2396,10.1146 45.5938,9.84375 C45.9479,9.57292 46.125,9.18229 46.125,8.67188 C46.125,8.19271 45.9609,7.82031 45.6328,7.55469 C45.3047,7.28906 44.8438,7.15625 44.25,7.15625 L43.3125,7.15625 L43.3125,6.26563 L44.2969,6.26563 C44.8281,6.26563 45.2344,6.15885 45.5156,5.94531 C45.7969,5.73177 45.9375,5.42708 45.9375,5.03125 C45.9375,4.61458 45.7917,4.29688 45.5,4.07813 C45.2083,3.85938 44.7917,3.75 44.25,3.75 C43.9583,3.75 43.6406,3.78125 43.2969,3.84375 C42.9531,3.90625 42.5781,4.00521 42.1719,4.14063 L42.1719,3.17188 C42.5885,3.05729 42.9766,2.97135 43.3359,2.91406 C43.6953,2.85677 44.0313,2.82813 44.3438,2.82813 C45.1667,2.82813 45.8203,3.01563 46.3047,3.39063 C46.7891,3.76563 47.0313,4.27604 47.0313,4.92188 C47.0313,5.35938 46.9036,5.73177 46.6484,6.03906 C46.3932,6.34635 46.0313,6.55729 45.5625,6.67188 "/>
</g>

<g fill="none" stroke="#000000" stroke-opacity="1" stroke-width="1" stroke-linecap="square" stroke-linejoin="bevel" transform="matrix(2,0,0,2,380.401,22)"
font-family="sans" font-size="11" font-weight="100" font-style="normal" 
>
</g>

<g fill="none" stroke="#000000" stroke-opacity="1" stroke-width="1" stroke-linecap="square" stroke-linejoin="bevel" transform="matrix(2,0,0,2,380.401,22)"
font-family="Ubuntu" font-size="11" font-weight="400" font-style="normal" 
>
</g>

<g fill="none" stroke="#000000" stroke-opacity="1" stroke-width="1" stroke-linecap="square" stroke-linejoin="bevel" transform="matrix(2,0,0,2,-0.0004,72)"
font-family="Ubuntu" font-size="11" font-weight="400" font-style="normal" 
>
</g>

<g fill="none" stroke="#000000" stroke-opacity="1" stroke-width="1" stroke-linecap="square" stroke-linejoin="bevel" transform="matrix(2,0,0,2,-0.0004,72)"
font-family="Ubuntu" font-size="11" font-weight="400" font-style="normal" 
>
</g>

<g fill="none" stroke="#000000" stroke-opacity="1" stroke-width="1" stroke-linecap="square" stroke-linejoin="bevel" transform="matrix(2,0,0,2,-0.0004,72)"
font-family="Ubuntu" font-size="11" font-weight="400" font-style="normal" 
>
</g>

<g fill="none" stroke="#000000" stroke-opacity="1" stroke-width="1" stroke-linecap="square" stroke-linejoin="round" transform="matrix(2,0,0,2,-0.0004,72)"
font-family="Ubuntu" font-size="11" font-weight="400" font-style="normal" 
>
<path vector-effect="none" fill-rule="evenodd" d="M104.22,-18 C122.58,-18 143.21,-18 161.61,-18 "/>
</g>

<g fill="none" stroke="#000000" stroke-opacity="1" stroke-width="1" stroke-linecap="square" stroke-linejoin="bevel" transform="matrix(2,0,0,2,-0.0004,72)"
font-family="Ubuntu" font-size="11" font-weight="400" font-style="normal" 
>
</g>

<g fill="none" stroke="#000000" stroke-opacity="1" stroke-width="1" stroke-linecap="square" stroke-linejoin="bevel" transform="matrix(2,0,0,2,226.745,7)"
font-family="Ubuntu" font-size="11" font-weight="400" font-style="normal" 
>
</g>

<g fill="none" stroke="#000000" stroke-opacity="1" stroke-width="1" stroke-linecap="square" stroke-linejoin="bevel" transform="matrix(2,0,0,2,226.745,7)"
font-family="sans" font-size="11" font-weight="100" font-style="normal" 
>
</g>

<g fill="#000000" fill-opacity="1" stroke="#000000" stroke-opacity="1" stroke-width="1" stroke-linecap="square" stroke-linejoin="round" transform="matrix(2,0,0,2,226.745,7)"
font-family="sans" font-size="11" font-weight="100" font-style="normal" 
>
<path vector-effect="none" fill-rule="nonzero" d="M2.79688,2.98438 L3.70313,2.98438 L0.90625,12.0156 L0,12.0156 L2.79688,2.98438 M9.0625,5.21875 L9.0625,6.14063 C8.79167,5.98438 8.51563,5.86719 8.23438,5.78906 C7.95313,5.71094 7.66667,5.67188 7.375,5.67188 C6.73958,5.67188 6.24479,5.875 5.89063,6.28125 C5.53646,6.6875 5.35938,7.26042 5.35938,8 C5.35938,8.72917 5.53646,9.29688 5.89063,9.70313 C6.24479,10.1094 6.73958,10.3125 7.375,10.3125 C7.66667,10.3125 7.95313,10.276 8.23438,10.2031 C8.51563,10.1302 8.79167,10.0156 9.0625,9.85938 L9.0625,10.7656 C8.79167,10.901 8.50781,11 8.21094,11.0625 C7.91406,11.125 7.59896,11.1563 7.26563,11.1563 C6.35938,11.1563 5.64063,10.8724 5.10938,10.3047 C4.57813,9.73698 4.3125,8.96875 4.3125,8 C4.3125,7.02083 4.58073,6.25 5.11719,5.6875 C5.65365,5.125 6.39063,4.84375 7.32813,4.84375 C7.64063,4.84375 7.9401,4.875 8.22656,4.9375 C8.51302,5 8.79167,5.09375 9.0625,5.21875 M15.4688,6.14063 C15.7188,5.69271 16.0156,5.36458 16.3594,5.15625 C16.7031,4.94792 17.1094,4.84375 17.5781,4.84375 C18.2031,4.84375 18.6849,5.0625 19.0234,5.5 C19.362,5.9375 19.5313,6.5625 19.5313,7.375 L19.5313,11 L18.5313,11 L18.5313,7.40625 C18.5313,6.82292 18.4297,6.39323 18.2266,6.11719 C18.0234,5.84115 17.7135,5.70313 17.2969,5.70313 C16.7865,5.70313 16.3828,5.8724 16.0859,6.21094 C15.7891,6.54948 15.6406,7.01042 15.6406,7.59375 L15.6406,11 L14.6406,11 L14.6406,7.40625 C14.6406,6.82292 14.5391,6.39323 14.3359,6.11719 C14.1328,5.84115 13.8177,5.70313 13.3906,5.70313 C12.8906,5.70313 12.4922,5.8724 12.1953,6.21094 C11.8984,6.54948 11.75,7.01042 11.75,7.59375 L11.75,11 L10.75,11 L10.75,4.98438 L11.75,4.98438 L11.75,5.92188 C11.9688,5.54688 12.237,5.27344 12.5547,5.10156 C12.8724,4.92969 13.2448,4.84375 13.6719,4.84375 C14.1094,4.84375 14.4818,4.95313 14.7891,5.17188 C15.0964,5.39063 15.3229,5.71354 15.4688,6.14063 M25.4531,5.89063 L25.4531,2.64063 L26.4375,2.64063 L26.4375,11 L25.4531,11 L25.4531,10.0938 C25.2448,10.4583 24.9818,10.7266 24.6641,10.8984 C24.3464,11.0703 23.9635,11.1563 23.5156,11.1563 C22.7969,11.1563 22.2083,10.8672 21.75,10.2891 C21.2917,9.71094 21.0625,8.94792 21.0625,8 C21.0625,7.05208 21.2917,6.28906 21.75,5.71094 C22.2083,5.13281 22.7969,4.84375 23.5156,4.84375 C23.9635,4.84375 24.3464,4.92969 24.6641,5.10156 C24.9818,5.27344 25.2448,5.53646 25.4531,5.89063 M22.0781,8 C22.0781,8.72917 22.2292,9.29948 22.5313,9.71094 C22.8333,10.1224 23.2448,10.3281 23.7656,10.3281 C24.2865,10.3281 24.6979,10.1224 25,9.71094 C25.3021,9.29948 25.4531,8.72917 25.4531,8 C25.4531,7.27083 25.3021,6.70052 25,6.28906 C24.6979,5.8776 24.2865,5.67188 23.7656,5.67188 C23.2448,5.67188 22.8333,5.8776 22.5313,6.28906 C22.2292,6.70052 22.0781,7.27083 22.0781,8 M33.0313,12.8281 L33.0313,13.5938 L27.3125,13.5938 L27.3125,12.8281 L33.0313,12.8281 M33.25,4.98438 L34.2969,4.98438 L36.1719,10.0313 L38.0625,4.98438 L39.1094,4.98438 L36.8438,11 L35.5,11 L33.25,4.98438 M45.6094,7.75 L45.6094,8.23438 L41.0625,8.23438 C41.1042,8.91146 41.3073,9.42708 41.6719,9.78125 C42.0365,10.1354 42.5469,10.3125 43.2031,10.3125 C43.5885,10.3125 43.9583,10.2656 44.3125,10.1719 C44.6667,10.0781 45.0208,9.94271 45.375,9.76563 L45.375,10.6875 C45.0208,10.8438 44.6563,10.9609 44.2813,11.0391 C43.9063,11.1172 43.5313,11.1563 43.1563,11.1563 C42.1875,11.1563 41.4245,10.8776 40.8672,10.3203 C40.3099,9.76302 40.0313,9.00521 40.0313,8.04688 C40.0313,7.06771 40.2969,6.28906 40.8281,5.71094 C41.3594,5.13281 42.0781,4.84375 42.9844,4.84375 C43.7865,4.84375 44.4245,5.10417 44.8984,5.625 C45.3724,6.14583 45.6094,6.85417 45.6094,7.75 M44.6094,7.45313 C44.6094,6.91146 44.4609,6.47917 44.1641,6.15625 C43.8672,5.83333 43.474,5.67188 42.9844,5.67188 C42.4323,5.67188 41.9922,5.82813 41.6641,6.14063 C41.3359,6.45313 41.1458,6.89063 41.0938,7.45313 L44.6094,7.45313 M47.2188,2.64063 L48.2188,2.64063 L48.2188,11 L47.2188,11 L47.2188,2.64063"/>
</g>

<g fill="none" stroke="#000000" stroke-opacity="1" stroke-width="1" stroke-linecap="square" stroke-linejoin="bevel" transform="matrix(2,0,0,2,226.745,7)"
font-family="sans" font-size="11" font-weight="100" font-style="normal" 
>
</g>

<g fill="none" stroke="#000000" stroke-opacity="1" stroke-width="1" stroke-linecap="square" stroke-linejoin="bevel" transform="matrix(2,0,0,2,226.745,7)"
font-family="Ubuntu" font-size="11" font-weight="400" font-style="normal" 
>
</g>

<g fill="none" stroke="#000000" stroke-opacity="1" stroke-width="1" stroke-linecap="square" stroke-linejoin="bevel" transform="matrix(2,0,0,2,-0.0004,72)"
font-family="Ubuntu" font-size="11" font-weight="400" font-style="normal" 
>
</g>

<g fill="#000000" fill-opacity="1" stroke="#000000" stroke-opacity="1" stroke-width="1" stroke-linecap="square" stroke-linejoin="round" transform="matrix(2,0,0,2,-0.0004,72)"
font-family="Ubuntu" font-size="11" font-weight="400" font-style="normal" 
>
<path vector-effect="none" fill-rule="evenodd" d="M161.61,-18 L161.61,-14.416 L171.85,-18 L161.61,-21.584 L161.61,-18"/>
</g>

<g fill="none" stroke="#000000" stroke-opacity="1" stroke-width="1" stroke-linecap="square" stroke-linejoin="bevel" transform="matrix(2,0,0,2,-0.0004,72)"
font-family="Ubuntu" font-size="11" font-weight="400" font-style="normal" 
>
</g>

<g fill="none" stroke="#000000" stroke-opacity="1" stroke-width="1" stroke-linecap="square" stroke-linejoin="bevel" transform="matrix(1,0,0,1,0,0)"
font-family="Ubuntu" font-size="11" font-weight="400" font-style="normal" 
>
</g>
</g>
</svg>
